<svg id="flat" height="512" viewBox="0 0 512 512" width="512" xmlns="http://www.w3.org/2000/svg"><g fill="#ededeb"><path d="m331.985 352h72.03a32 32 0 0 1 31.78 35.739l-10.133 86.13a16 16 0 0 1 -15.89 14.131h-83.544a16 16 0 0 1 -15.89-14.131l-10.133-86.13a32 32 0 0 1 31.78-35.739z"/><path d="m456 384v94.7a9.3 9.3 0 0 0 9.3 9.3 9.3 9.3 0 0 0 8.821-6.358l11.658-48.409a80.009 80.009 0 0 0 2.221-18.733v-30.5a16 16 0 0 0 -16-16 16 16 0 0 0 -16 16z"/><path d="m280 272a48 48 0 0 0 48 48h80a48 48 0 0 0 48-48 72 72 0 0 0 -72-72h-32a72 72 0 0 0 -72 72z"/></g><path d="m430.742 217.258a71.7 71.7 0 0 1 17.258 46.742 48 48 0 0 1 -48 48h-80a47.78 47.78 0 0 1 -29.7-10.3 47.9 47.9 0 0 0 37.7 18.3h80a48 48 0 0 0 48-48 71.822 71.822 0 0 0 -25.258-54.742z" fill="#cececc"/><rect fill="#666" height="48" rx="24" width="112" x="312" y="240"/><path d="m416.39 246.476a151.465 151.465 0 0 1 -87.167 40.547 23.986 23.986 0 0 0 6.777.977h64a24 24 0 0 0 24-24 23.926 23.926 0 0 0 -7.61-17.524z" fill="#565655"/><circle cx="96" cy="96" fill="#3098c6" r="72"/><path d="m133.482 34.518a72.01 72.01 0 0 1 -98.964 98.964 72 72 0 1 0 98.964-98.964z" fill="#2686a8"/><path d="m128 136a32 32 0 0 0 -32-32 32 32 0 0 0 -32 32v24.5a72 72 0 0 0 64 0z" fill="#ff5086"/><path d="m280 384v94.7a9.3 9.3 0 0 1 -9.3 9.3 9.3 9.3 0 0 1 -8.821-6.358l-11.658-48.409a80.009 80.009 0 0 1 -2.221-18.733v-30.5a16 16 0 0 1 16-16 16 16 0 0 1 16 16z" fill="#ededeb"/><rect fill="#96d320" height="16" rx="8" width="16" x="328" y="256"/><rect fill="#96d320" height="16" rx="8" width="16" x="392" y="256"/><path d="m64 143.554v16.956a72.051 72.051 0 0 0 64-.012v-24.498a31.846 31.846 0 0 0 -3.569-14.681 71.785 71.785 0 0 1 -52.431 22.681 72.621 72.621 0 0 1 -8-.446z" fill="#e03f81"/><circle cx="96" cy="80" fill="#fccca7" r="24"/><path d="m108.494 59.506a24 24 0 0 1 -32.988 32.988 24 24 0 1 0 32.988-32.988z" fill="#e5b391"/><path d="m232 72a48 48 0 0 1 -19.2 38.4l-12.8 9.6h240a48 48 0 0 0 48-48 48 48 0 0 0 -48-48h-160a48 48 0 0 0 -48 48z" fill="#b7b2a5"/><path d="m454.834 26.347a311.035 311.035 0 0 1 -222.834 93.653h208a48 48 0 0 0 48-48 48.014 48.014 0 0 0 -33.166-45.653z" fill="#999488"/><path d="m216 256a48 48 0 0 0 19.2 38.4l12.8 9.6h-176a48 48 0 0 1 -48-48 48 48 0 0 1 48-48h96a48 48 0 0 1 48 48z" fill="#26bfb0"/><path d="m235.2 294.4a48 48 0 0 1 -19.2-38.4 47.882 47.882 0 0 0 -16.876-36.527 191.919 191.919 0 0 1 -137.737 83.335 48.136 48.136 0 0 0 10.613 1.192h176z" fill="#1c998a"/><path d="m478.575 369.425a15.9 15.9 0 0 1 1.425 6.575v30.5a80.009 80.009 0 0 1 -2.223 18.73l-11.658 48.409a9.213 9.213 0 0 1 -10.031 6.27 9.292 9.292 0 0 0 18.031 1.73l11.658-48.409a80.009 80.009 0 0 0 2.223-18.73v-30.5a15.99 15.99 0 0 0 -9.425-14.575z" fill="#cececc"/><path d="m270.575 369.425a15.9 15.9 0 0 1 1.425 6.575v94.7a9.255 9.255 0 0 1 -10.536 9.209l.417 1.731a9.3 9.3 0 0 0 18.119-2.94v-94.7a15.99 15.99 0 0 0 -9.425-14.575z" fill="#cececc"/><path d="m311.911 479.121a15.994 15.994 0 0 0 14.317 8.879h83.544a16 16 0 0 0 15.89-14.131l10.133-86.13a31.87 31.87 0 0 0 -1.108-12.869 144.122 144.122 0 0 1 -122.776 104.251z" fill="#cececc"/></svg>